<mxfile host="65bd71144e">
    <diagram id="qN0PBMXvl69ToxzrPlfz" name="PÃ¡gina-1">
        <mxGraphModel dx="804" dy="459" grid="1" gridSize="10" guides="1" tooltips="1" connect="1" arrows="1" fold="1" page="1" pageScale="1" pageWidth="827" pageHeight="1169" math="0" shadow="0">
            <root>
                <mxCell id="0"/>
                <mxCell id="1" parent="0"/>
                <mxCell id="22" style="edgeStyle=none;html=1;entryX=0.5;entryY=0;entryDx=0;entryDy=0;" parent="1" source="2" target="6" edge="1">
                    <mxGeometry relative="1" as="geometry"/>
                </mxCell>
                <mxCell id="2" value="Inicio" style="ellipse;whiteSpace=wrap;html=1;fontSize=19;gradientColor=#190033;fillColor=#006666;" parent="1" vertex="1">
                    <mxGeometry x="354" y="110" width="120" height="80" as="geometry"/>
                </mxCell>
                <mxCell id="3" value="Fin" style="ellipse;whiteSpace=wrap;html=1;fontSize=19;gradientColor=#006666;fillColor=#190033;" parent="1" vertex="1">
                    <mxGeometry x="420" y="1260" width="120" height="80" as="geometry"/>
                </mxCell>
                <mxCell id="32" style="edgeStyle=none;html=1;" parent="1" source="6" target="24" edge="1">
                    <mxGeometry relative="1" as="geometry"/>
                </mxCell>
                <mxCell id="6" value="a,b" style="shape=parallelogram;perimeter=parallelogramPerimeter;whiteSpace=wrap;html=1;fixedSize=1;fontSize=19;fillColor=#330066;rounded=0;gradientColor=#000099;" parent="1" vertex="1">
                    <mxGeometry x="354" y="250" width="120" height="60" as="geometry"/>
                </mxCell>
                <mxCell id="12" style="edgeStyle=none;html=1;entryX=0.5;entryY=0;entryDx=0;entryDy=0;fontSize=19;fontColor=#000000;" parent="1" source="8" target="11" edge="1">
                    <mxGeometry relative="1" as="geometry"/>
                </mxCell>
                <mxCell id="14" style="edgeStyle=none;html=1;fontSize=19;fontColor=#000000;entryX=0.5;entryY=0;entryDx=0;entryDy=0;" parent="1" source="8" target="18" edge="1">
                    <mxGeometry relative="1" as="geometry">
                        <mxPoint x="870" y="850" as="targetPoint"/>
                        <Array as="points">
                            <mxPoint x="910" y="705"/>
                        </Array>
                    </mxGeometry>
                </mxCell>
                <mxCell id="8" value="&lt;font color=&quot;#000000&quot;&gt;a&amp;lt;b&lt;/font&gt;" style="rhombus;whiteSpace=wrap;html=1;fontSize=19;fillColor=#FF9933;rounded=0;gradientColor=#FFFF33;" parent="1" vertex="1">
                    <mxGeometry x="574" y="640" width="116" height="130" as="geometry"/>
                </mxCell>
                <mxCell id="13" style="edgeStyle=none;html=1;fontSize=19;fontColor=#000000;entryX=0;entryY=0.5;entryDx=0;entryDy=0;exitX=0.5;exitY=1;exitDx=0;exitDy=0;" parent="1" source="36" target="8" edge="1">
                    <mxGeometry relative="1" as="geometry">
                        <mxPoint x="540" y="690" as="targetPoint"/>
                        <Array as="points">
                            <mxPoint x="632" y="1190"/>
                            <mxPoint x="450" y="1190"/>
                            <mxPoint x="460" y="705"/>
                        </Array>
                    </mxGeometry>
                </mxCell>
                <mxCell id="37" style="edgeStyle=none;html=1;" parent="1" source="11" target="35" edge="1">
                    <mxGeometry relative="1" as="geometry"/>
                </mxCell>
                <mxCell id="11" value="r=a%2" style="rounded=0;whiteSpace=wrap;html=1;fontSize=19;fillColor=#330033;gradientColor=#990099;" parent="1" vertex="1">
                    <mxGeometry x="562" y="840" width="140" height="50" as="geometry"/>
                </mxCell>
                <mxCell id="17" value="&lt;font color=&quot;#ffffff&quot; style=&quot;font-size: 26px&quot;&gt;Falso&lt;/font&gt;" style="text;html=1;strokeColor=none;fillColor=#660000;align=center;verticalAlign=middle;whiteSpace=wrap;rounded=0;fontSize=19;fontColor=#000000;gradientColor=#FF3333;" parent="1" vertex="1">
                    <mxGeometry x="710" y="650" width="120" height="40" as="geometry"/>
                </mxCell>
                <mxCell id="19" style="edgeStyle=none;html=1;entryX=1;entryY=0.5;entryDx=0;entryDy=0;fontSize=19;fontColor=#FFFFFF;" parent="1" source="18" target="3" edge="1">
                    <mxGeometry relative="1" as="geometry">
                        <Array as="points">
                            <mxPoint x="910" y="1300"/>
                        </Array>
                    </mxGeometry>
                </mxCell>
                <mxCell id="18" value="&lt;font style=&quot;font-size: 19px&quot;&gt;s&lt;/font&gt;" style="shape=document;whiteSpace=wrap;html=1;boundedLbl=1;fontSize=26;fontColor=#FFFFFF;fillColor=#1A1A1A;gradientColor=#006666;strokeColor=default;" parent="1" vertex="1">
                    <mxGeometry x="850" y="800" width="120" height="80" as="geometry"/>
                </mxCell>
                <mxCell id="20" value="&lt;font color=&quot;#ffffff&quot; style=&quot;font-size: 26px&quot;&gt;Verdadero&lt;/font&gt;" style="text;html=1;strokeColor=none;fillColor=#1A3300;align=center;verticalAlign=middle;whiteSpace=wrap;rounded=0;fontSize=19;fontColor=#000000;gradientColor=#00CC00;" parent="1" vertex="1">
                    <mxGeometry x="474" y="760" width="140" height="40" as="geometry"/>
                </mxCell>
                <mxCell id="29" style="edgeStyle=none;html=1;entryX=0.5;entryY=0;entryDx=0;entryDy=0;" parent="1" source="24" target="28" edge="1">
                    <mxGeometry relative="1" as="geometry">
                        <Array as="points">
                            <mxPoint x="230" y="445"/>
                        </Array>
                    </mxGeometry>
                </mxCell>
                <mxCell id="30" style="edgeStyle=none;html=1;entryX=0.5;entryY=0;entryDx=0;entryDy=0;" parent="1" source="24" target="31" edge="1">
                    <mxGeometry relative="1" as="geometry">
                        <mxPoint x="631.9999999999998" y="520" as="targetPoint"/>
                        <Array as="points">
                            <mxPoint x="632" y="445"/>
                        </Array>
                    </mxGeometry>
                </mxCell>
                <mxCell id="24" value="&lt;font color=&quot;#000000&quot;&gt;a&amp;lt;b&lt;/font&gt;" style="rhombus;whiteSpace=wrap;html=1;fontSize=19;fillColor=#FF9933;rounded=0;gradientColor=#FFFF33;" parent="1" vertex="1">
                    <mxGeometry x="358" y="380" width="116" height="130" as="geometry"/>
                </mxCell>
                <mxCell id="26" value="&lt;font color=&quot;#ffffff&quot; style=&quot;font-size: 26px&quot;&gt;Falso&lt;/font&gt;" style="text;html=1;strokeColor=none;fillColor=#660000;align=center;verticalAlign=middle;whiteSpace=wrap;rounded=0;fontSize=19;fontColor=#000000;gradientColor=#FF3333;" parent="1" vertex="1">
                    <mxGeometry x="234" y="380" width="120" height="40" as="geometry"/>
                </mxCell>
                <mxCell id="27" value="&lt;font color=&quot;#ffffff&quot; style=&quot;font-size: 26px&quot;&gt;Verdadero&lt;/font&gt;" style="text;html=1;strokeColor=none;fillColor=#1A3300;align=center;verticalAlign=middle;whiteSpace=wrap;rounded=0;fontSize=19;fontColor=#000000;gradientColor=#00CC00;" parent="1" vertex="1">
                    <mxGeometry x="490" y="370" width="140" height="40" as="geometry"/>
                </mxCell>
                <mxCell id="34" style="edgeStyle=none;html=1;entryX=0;entryY=0.5;entryDx=0;entryDy=0;" parent="1" source="28" target="3" edge="1">
                    <mxGeometry relative="1" as="geometry">
                        <Array as="points">
                            <mxPoint x="230" y="1300"/>
                        </Array>
                    </mxGeometry>
                </mxCell>
                <mxCell id="28" value="&lt;font style=&quot;font-size: 19px&quot;&gt;a debe ser menor que b&lt;/font&gt;" style="shape=document;whiteSpace=wrap;html=1;boundedLbl=1;fontSize=26;fontColor=#FFFFFF;fillColor=#1A1A1A;gradientColor=#006666;strokeColor=default;" parent="1" vertex="1">
                    <mxGeometry x="150" y="530" width="160" height="90" as="geometry"/>
                </mxCell>
                <mxCell id="33" style="edgeStyle=none;html=1;" parent="1" source="31" target="8" edge="1">
                    <mxGeometry relative="1" as="geometry"/>
                </mxCell>
                <mxCell id="31" value="s=0&lt;br&gt;a=a+1" style="rounded=0;whiteSpace=wrap;html=1;fontSize=19;fillColor=#330033;gradientColor=#990099;" parent="1" vertex="1">
                    <mxGeometry x="572" y="540" width="120" height="60" as="geometry"/>
                </mxCell>
                <mxCell id="38" style="edgeStyle=none;html=1;entryX=0.5;entryY=0;entryDx=0;entryDy=0;" parent="1" source="35" target="36" edge="1">
                    <mxGeometry relative="1" as="geometry"/>
                </mxCell>
                <mxCell id="39" style="edgeStyle=none;html=1;" parent="1" source="35" edge="1">
                    <mxGeometry relative="1" as="geometry">
                        <mxPoint x="630" y="1090" as="targetPoint"/>
                        <Array as="points">
                            <mxPoint x="520" y="985"/>
                            <mxPoint x="520" y="1090"/>
                        </Array>
                    </mxGeometry>
                </mxCell>
                <mxCell id="41" style="edgeStyle=none;html=1;entryX=0.5;entryY=0;entryDx=0;entryDy=0;" parent="1" source="35" target="40" edge="1">
                    <mxGeometry relative="1" as="geometry">
                        <Array as="points">
                            <mxPoint x="760" y="985"/>
                        </Array>
                    </mxGeometry>
                </mxCell>
                <mxCell id="35" value="&lt;font color=&quot;#000000&quot;&gt;r==0&lt;/font&gt;" style="rhombus;whiteSpace=wrap;html=1;fontSize=19;fillColor=#FF9933;rounded=0;gradientColor=#FFFF33;" parent="1" vertex="1">
                    <mxGeometry x="572" y="920" width="116" height="130" as="geometry"/>
                </mxCell>
                <mxCell id="36" value="a=a+1" style="rounded=0;whiteSpace=wrap;html=1;fontSize=19;fillColor=#330033;gradientColor=#990099;" parent="1" vertex="1">
                    <mxGeometry x="562" y="1119" width="140" height="50" as="geometry"/>
                </mxCell>
                <mxCell id="42" style="edgeStyle=none;html=1;" parent="1" source="40" edge="1">
                    <mxGeometry relative="1" as="geometry">
                        <mxPoint x="640" y="1089.9999999999998" as="targetPoint"/>
                        <Array as="points">
                            <mxPoint x="760" y="1090"/>
                        </Array>
                    </mxGeometry>
                </mxCell>
                <mxCell id="40" value="s=s+1" style="rounded=0;whiteSpace=wrap;html=1;fontSize=19;fillColor=#330033;gradientColor=#990099;" parent="1" vertex="1">
                    <mxGeometry x="687" y="1020" width="140" height="50" as="geometry"/>
                </mxCell>
                <mxCell id="43" value="&lt;font color=&quot;#ffffff&quot; style=&quot;font-size: 26px&quot;&gt;Verdadero&lt;/font&gt;" style="text;html=1;strokeColor=none;fillColor=#1A3300;align=center;verticalAlign=middle;whiteSpace=wrap;rounded=0;fontSize=19;fontColor=#000000;gradientColor=#00CC00;" parent="1" vertex="1">
                    <mxGeometry x="687" y="930" width="140" height="40" as="geometry"/>
                </mxCell>
                <mxCell id="44" value="&lt;font color=&quot;#ffffff&quot; style=&quot;font-size: 26px&quot;&gt;Falso&lt;/font&gt;" style="text;html=1;strokeColor=none;fillColor=#660000;align=center;verticalAlign=middle;whiteSpace=wrap;rounded=0;fontSize=19;fontColor=#000000;gradientColor=#FF3333;" parent="1" vertex="1">
                    <mxGeometry x="452" y="950" width="120" height="40" as="geometry"/>
                </mxCell>
            </root>
        </mxGraphModel>
    </diagram>
</mxfile>